<?xml version="1.0" encoding="UTF-8"?>
<svg xmlns="http://www.w3.org/2000/svg" xmlns:xlink="http://www.w3.org/1999/xlink" width="27px" height="27px" viewBox="0 0 27 27" version="1.1">
<g id="surface1">
<path style=" stroke:none;fill-rule:nonzero;fill:rgb(0%,44.313726%,80.784315%);fill-opacity:1;" d="M 23.058594 21.6875 C 22.714844 21.6875 22.394531 21.46875 22.28125 21.121094 C 22.140625 20.695312 22.375 20.230469 22.804688 20.089844 C 24.359375 19.582031 25.363281 18.21875 25.363281 16.617188 C 25.363281 14.589844 23.714844 12.941406 21.6875 12.941406 C 21.546875 12.941406 21.394531 12.953125 21.210938 12.976562 L 20.410156 13.078125 L 20.296875 12.28125 C 19.804688 8.855469 16.824219 6.277344 13.359375 6.277344 C 10.496094 6.277344 7.949219 7.988281 6.867188 10.640625 L 6.664062 11.140625 L 6.125 11.152344 C 3.648438 11.195312 1.636719 13.246094 1.636719 15.722656 C 1.636719 17.527344 2.683594 19.175781 4.308594 19.917969 C 4.71875 20.105469 4.898438 20.589844 4.710938 21 C 4.523438 21.410156 4.039062 21.589844 3.625 21.402344 C 1.421875 20.394531 0 18.164062 0 15.722656 C 0 12.539062 2.449219 9.875 5.5625 9.550781 C 6.996094 6.550781 10.003906 4.640625 13.359375 4.640625 C 17.375 4.640625 20.867188 7.457031 21.773438 11.304688 C 24.664062 11.351562 27 13.71875 27 16.617188 C 27 18.902344 25.519531 20.921875 23.3125 21.644531 C 23.226562 21.671875 23.140625 21.6875 23.058594 21.6875 Z M 23.058594 21.6875 "/>
<path style=" stroke:none;fill-rule:nonzero;fill:rgb(86.274511%,51.372552%,15.294118%);fill-opacity:1;" d="M 10.546875 22.039062 C 10.546875 22.039062 10.542969 22.039062 10.542969 22.039062 C 10.542969 22.035156 10.542969 22.035156 10.542969 22.035156 C 10.542969 22.039062 10.542969 22.035156 10.542969 22.035156 C 10.539062 22.035156 10.539062 22.035156 10.539062 22.035156 C 10.523438 22.03125 10.511719 22.027344 10.496094 22.027344 L 10.492188 22.027344 C 10.136719 22.027344 9.847656 21.738281 9.847656 21.386719 L 9.847656 14.199219 L 10.398438 14.199219 C 10.480469 14.203125 10.539062 14.140625 10.539062 14.0625 C 10.539062 14.003906 10.503906 13.953125 10.453125 13.933594 L 7.808594 12.109375 C 7.761719 12.078125 7.699219 12.078125 7.652344 12.109375 L 4.992188 13.949219 C 4.941406 13.984375 4.917969 14.046875 4.9375 14.105469 C 4.953125 14.160156 5.007812 14.199219 5.070312 14.199219 L 5.621094 14.199219 L 5.621094 21.386719 C 5.621094 21.886719 6.023438 22.289062 6.53125 22.304688 C 6.535156 22.304688 6.539062 22.304688 6.546875 22.304688 L 10.492188 22.304688 C 10.53125 22.304688 10.5625 22.289062 10.585938 22.265625 C 10.585938 22.265625 10.589844 22.265625 10.589844 22.265625 L 10.589844 22.261719 C 10.613281 22.238281 10.628906 22.203125 10.628906 22.167969 L 10.628906 22.164062 C 10.628906 22.109375 10.597656 22.0625 10.546875 22.039062 Z M 10.546875 22.039062 "/>
<path style=" stroke:none;fill-rule:nonzero;fill:rgb(95.686275%,69.803923%,10.588235%);fill-opacity:1;" d="M 16.253906 22.039062 C 16.25 22.039062 16.25 22.039062 16.25 22.039062 C 16.25 22.035156 16.25 22.035156 16.25 22.035156 C 16.25 22.039062 16.25 22.035156 16.25 22.035156 C 16.25 22.035156 16.246094 22.035156 16.246094 22.035156 C 16.246094 22.035156 16.246094 22.035156 16.242188 22.035156 C 16.230469 22.03125 16.21875 22.027344 16.203125 22.027344 L 16.199219 22.027344 C 15.84375 22.027344 15.554688 21.738281 15.550781 21.386719 L 15.550781 15.808594 L 16.101562 15.808594 C 16.105469 15.808594 16.105469 15.808594 16.109375 15.808594 C 16.183594 15.808594 16.246094 15.746094 16.246094 15.671875 C 16.246094 15.613281 16.210938 15.5625 16.160156 15.542969 L 13.519531 13.71875 C 13.472656 13.6875 13.410156 13.6875 13.363281 13.71875 L 10.699219 15.558594 C 10.648438 15.589844 10.628906 15.65625 10.644531 15.710938 C 10.664062 15.769531 10.71875 15.808594 10.777344 15.808594 L 11.328125 15.808594 L 11.328125 21.386719 C 11.328125 21.886719 11.730469 22.289062 12.238281 22.304688 C 12.242188 22.304688 12.246094 22.304688 12.253906 22.304688 L 16.199219 22.304688 C 16.238281 22.304688 16.269531 22.289062 16.292969 22.265625 C 16.292969 22.265625 16.296875 22.265625 16.296875 22.265625 L 16.296875 22.261719 C 16.320312 22.238281 16.335938 22.203125 16.335938 22.167969 L 16.335938 22.164062 C 16.335938 22.109375 16.304688 22.0625 16.253906 22.039062 Z M 16.253906 22.039062 "/>
<path style=" stroke:none;fill-rule:nonzero;fill:rgb(94.901961%,84.705883%,39.215687%);fill-opacity:1;" d="M 21.976562 22.039062 L 21.972656 22.039062 C 21.972656 22.035156 21.972656 22.035156 21.972656 22.035156 C 21.972656 22.039062 21.972656 22.035156 21.972656 22.035156 C 21.972656 22.035156 21.96875 22.035156 21.96875 22.035156 C 21.964844 22.035156 21.964844 22.035156 21.964844 22.035156 C 21.953125 22.03125 21.9375 22.027344 21.925781 22.027344 L 21.917969 22.027344 L 21.921875 22.027344 L 21.917969 22.027344 C 21.566406 22.027344 21.277344 21.738281 21.273438 21.386719 L 21.273438 17.417969 L 21.828125 17.417969 C 21.90625 17.417969 21.96875 17.355469 21.96875 17.28125 C 21.96875 17.222656 21.933594 17.171875 21.882812 17.152344 L 19.238281 15.328125 C 19.191406 15.296875 19.128906 15.296875 19.082031 15.328125 L 16.417969 17.164062 C 16.371094 17.199219 16.347656 17.261719 16.367188 17.320312 C 16.382812 17.378906 16.4375 17.417969 16.5 17.417969 L 17.046875 17.417969 L 17.046875 21.386719 C 17.050781 21.886719 17.449219 22.289062 17.957031 22.304688 C 17.964844 22.304688 17.96875 22.304688 17.976562 22.304688 L 21.921875 22.304688 C 21.957031 22.304688 21.992188 22.289062 22.015625 22.265625 L 22.015625 22.261719 L 22.019531 22.261719 C 22.042969 22.238281 22.058594 22.203125 22.058594 22.167969 L 22.058594 22.164062 C 22.058594 22.109375 22.023438 22.0625 21.976562 22.039062 Z M 21.976562 22.039062 "/>
</g>
</svg>
