<?xml version="1.0" encoding="UTF-8"?>
<svg xmlns="http://www.w3.org/2000/svg" xmlns:xlink="http://www.w3.org/1999/xlink" width="27px" height="27px" viewBox="0 0 27 27" version="1.1">
<g id="surface1">
<path style=" stroke:none;fill-rule:nonzero;fill:rgb(32.941177%,43.137255%,47.843137%);fill-opacity:1;" d="M 12.320312 17.871094 L 13.785156 16.339844 L 15.246094 17.871094 L 15.246094 24.1875 L 12.320312 24.1875 Z M 12.320312 17.871094 "/>
<path style=" stroke:none;fill-rule:nonzero;fill:rgb(96.078432%,0%,34.117648%);fill-opacity:1;" d="M 9.976562 16.34375 L 12.0625 15.964844 L 12.34375 18.066406 L 8.632812 23.175781 L 6.265625 21.453125 Z M 9.976562 16.34375 "/>
<path style=" stroke:none;fill-rule:nonzero;fill:rgb(83.529413%,0%,97.647059%);fill-opacity:1;" d="M 8.980469 13.730469 L 10.886719 14.648438 L 9.882812 16.511719 L 3.875 18.464844 L 2.972656 15.683594 Z M 8.980469 13.730469 "/>
<path style=" stroke:none;fill-rule:nonzero;fill:rgb(16.078432%,71.372551%,96.470588%);fill-opacity:1;" d="M 9.707031 11.027344 L 10.710938 12.894531 L 8.800781 13.8125 L 2.796875 11.859375 L 3.699219 9.078125 Z M 9.707031 11.027344 "/>
<path style=" stroke:none;fill-rule:nonzero;fill:rgb(0%,89.803922%,100%);fill-opacity:1;" d="M 11.882812 9.269531 L 11.601562 11.371094 L 9.515625 10.992188 L 5.804688 5.882812 L 8.171875 4.160156 Z M 11.882812 9.269531 "/>
<path style=" stroke:none;fill-rule:nonzero;fill:rgb(32.941177%,43.137255%,47.843137%);fill-opacity:1;" d="M 14.679688 9.128906 L 13.214844 10.660156 L 11.753906 9.128906 L 11.753906 2.8125 L 14.679688 2.8125 Z M 14.679688 9.128906 "/>
<path style=" stroke:none;fill-rule:nonzero;fill:rgb(96.078432%,0%,34.117648%);fill-opacity:1;" d="M 17.023438 10.65625 L 14.9375 11.035156 L 14.65625 8.9375 L 18.367188 3.824219 L 20.734375 5.546875 Z M 17.023438 10.65625 "/>
<path style=" stroke:none;fill-rule:nonzero;fill:rgb(83.529413%,0%,97.647059%);fill-opacity:1;" d="M 18.023438 13.269531 L 16.113281 12.351562 L 17.117188 10.488281 L 23.125 8.535156 L 24.027344 11.316406 Z M 18.023438 13.269531 "/>
<path style=" stroke:none;fill-rule:nonzero;fill:rgb(16.078432%,71.372551%,96.470588%);fill-opacity:1;" d="M 17.292969 15.972656 L 16.289062 14.105469 L 18.199219 13.1875 L 24.203125 15.140625 L 23.300781 17.921875 Z M 17.292969 15.972656 "/>
<path style=" stroke:none;fill-rule:nonzero;fill:rgb(0%,89.803922%,100%);fill-opacity:1;" d="M 15.117188 17.730469 L 15.398438 15.628906 L 17.484375 16.007812 L 21.195312 21.117188 L 18.828125 22.839844 Z M 15.117188 17.730469 "/>
</g>
</svg>
