<?xml version="1.0" encoding="UTF-8"?>
<svg xmlns="http://www.w3.org/2000/svg" xmlns:xlink="http://www.w3.org/1999/xlink" width="27px" height="27px" viewBox="0 0 27 27" version="1.1">
<g id="surface1">
<path style=" stroke:none;fill-rule:nonzero;fill:rgb(7.450981%,66.666669%,32.156864%);fill-opacity:1;" d="M 27 13.5 C 27 6.042969 20.957031 0 13.5 0 C 6.042969 0 0 6.042969 0 13.5 C 0 20.957031 6.042969 27 13.5 27 C 20.957031 27 27 20.957031 27 13.5 Z M 27 13.5 "/>
<path style=" stroke:none;fill-rule:nonzero;fill:rgb(100%,100%,100%);fill-opacity:1;" d="M 17.109375 11.851562 C 16.257812 8.085938 14.242188 6.851562 14.023438 6.375 C 13.785156 6.042969 13.546875 5.449219 13.546875 5.449219 C 13.542969 5.441406 13.535156 5.421875 13.527344 5.40625 C 13.503906 5.738281 13.492188 5.867188 13.175781 6.203125 C 12.6875 6.585938 10.183594 8.6875 9.976562 12.964844 C 9.789062 16.953125 12.859375 19.328125 13.273438 19.628906 L 13.320312 19.664062 L 13.320312 19.660156 C 13.324219 19.679688 13.453125 20.609375 13.542969 21.59375 L 13.867188 21.59375 C 13.945312 20.898438 14.058594 20.207031 14.210938 19.523438 L 14.238281 19.507812 C 14.425781 19.375 14.601562 19.230469 14.769531 19.074219 L 14.789062 19.054688 C 15.671875 18.242188 17.257812 16.355469 17.242188 13.347656 C 17.238281 12.84375 17.195312 12.34375 17.109375 11.851562 Z M 13.507812 17.378906 C 13.507812 17.378906 13.507812 11.785156 13.695312 11.789062 C 13.835938 11.789062 14.023438 19 14.023438 19 C 13.769531 18.96875 13.507812 17.8125 13.507812 17.378906 Z M 13.507812 17.378906 "/>
</g>
</svg>
