<?xml version="1.0" encoding="UTF-8"?>
<svg xmlns="http://www.w3.org/2000/svg" xmlns:xlink="http://www.w3.org/1999/xlink" width="27px" height="27px" viewBox="0 0 27 21" version="1.1">
<g id="surface1">
<path style=" stroke:none;fill-rule:nonzero;fill:rgb(0%,69.01961%,100%);fill-opacity:1;" d="M 0 11.410156 L 0 0 L 10.125 5.707031 L 10.125 9.507812 L 3.375 5.707031 L 3.375 13.3125 Z M 0 11.410156 "/>
<path style=" stroke:none;fill-rule:nonzero;fill:rgb(0%,50.588238%,79.607844%);fill-opacity:1;" d="M 10.125 5.707031 L 20.25 0 L 20.25 11.410156 L 13.5 15.214844 L 10.125 13.3125 L 16.875 9.507812 L 16.875 5.707031 L 10.125 9.507812 Z M 10.125 5.707031 "/>
<path style=" stroke:none;fill-rule:nonzero;fill:rgb(0%,69.01961%,100%);fill-opacity:1;" d="M 10.125 13.3125 L 10.125 17.117188 L 16.875 20.917969 L 16.875 17.117188 Z M 10.125 13.3125 "/>
<path style=" stroke:none;fill-rule:nonzero;fill:rgb(0%,50.588238%,79.607844%);fill-opacity:1;" d="M 16.875 20.917969 L 27 15.214844 L 27 7.605469 L 23.625 9.507812 L 23.625 13.3125 L 16.875 17.117188 Z M 23.625 5.707031 L 23.625 1.902344 L 27 0 L 27 3.804688 Z M 23.625 5.707031 "/>
</g>
</svg>
