<?xml version="1.0" encoding="UTF-8"?>
<svg xmlns="http://www.w3.org/2000/svg" xmlns:xlink="http://www.w3.org/1999/xlink" width="27px" height="20px" viewBox="0 0 26 20" version="1.1">
<g id="surface1">
<path style=" stroke:none;fill-rule:nonzero;fill:rgb(20.784314%,58.823532%,99.607843%);fill-opacity:1;" d="M 19.691406 2.261719 C 19.65625 2.578125 19.578125 2.882812 19.496094 3.191406 C 19.484375 3.246094 19.46875 3.300781 19.453125 3.359375 C 19.371094 3.679688 19.285156 3.996094 19.195312 4.308594 C 19.132812 4.542969 19.078125 4.78125 19.019531 5.015625 C 18.925781 5.410156 18.820312 5.796875 18.707031 6.183594 C 18.625 6.453125 18.558594 6.726562 18.5 7 C 18.441406 7.257812 18.371094 7.507812 18.292969 7.761719 C 18.210938 8.042969 18.132812 8.324219 18.070312 8.613281 C 18.007812 8.898438 17.933594 9.179688 17.851562 9.460938 C 17.742188 9.847656 17.644531 10.234375 17.550781 10.625 C 17.449219 11.046875 17.339844 11.460938 17.214844 11.875 C 17.132812 12.148438 17.066406 12.421875 17.003906 12.703125 C 16.949219 12.953125 16.882812 13.195312 16.8125 13.441406 C 16.746094 13.679688 16.6875 13.917969 16.628906 14.15625 C 16.542969 14.492188 16.453125 14.828125 16.359375 15.160156 C 16.285156 15.4375 16.214844 15.714844 16.144531 15.996094 C 16.085938 16.234375 16.019531 16.472656 15.953125 16.710938 C 15.847656 17.085938 15.753906 17.460938 15.65625 17.839844 C 15.632812 17.925781 15.609375 18.015625 15.585938 18.105469 C 15.574219 18.15625 15.558594 18.207031 15.546875 18.261719 C 15.488281 18.472656 15.425781 18.679688 15.367188 18.890625 C 14.371094 18.890625 13.375 18.890625 12.347656 18.890625 C 12.347656 18.675781 12.355469 18.539062 12.410156 18.335938 C 12.421875 18.292969 12.429688 18.246094 12.445312 18.199219 C 12.46875 18.109375 12.492188 18.023438 12.523438 17.9375 C 12.597656 17.707031 12.65625 17.46875 12.71875 17.230469 C 12.730469 17.179688 12.746094 17.125 12.761719 17.070312 C 12.863281 16.675781 12.964844 16.277344 13.066406 15.882812 C 13.125 15.648438 13.1875 15.414062 13.253906 15.179688 C 13.320312 14.945312 13.375 14.714844 13.429688 14.476562 C 13.480469 14.25 13.535156 14.027344 13.601562 13.808594 C 13.691406 13.519531 13.761719 13.226562 13.832031 12.933594 C 13.914062 12.589844 14.003906 12.257812 14.109375 11.921875 C 14.15625 11.753906 14.195312 11.582031 14.234375 11.410156 C 14.308594 11.070312 14.398438 10.738281 14.492188 10.402344 C 14.59375 10.050781 14.683594 9.691406 14.773438 9.335938 C 14.847656 9.046875 14.925781 8.757812 15.007812 8.472656 C 15.070312 8.234375 15.128906 7.996094 15.183594 7.761719 C 15.152344 7.78125 15.117188 7.804688 15.082031 7.832031 C 14.953125 7.917969 14.828125 8.007812 14.699219 8.09375 C 14.644531 8.132812 14.585938 8.171875 14.53125 8.207031 C 14.199219 8.4375 13.863281 8.660156 13.515625 8.875 C 13.328125 8.996094 13.140625 9.121094 12.953125 9.246094 C 12.875 9.296875 12.796875 9.351562 12.71875 9.402344 C 12.679688 9.429688 12.640625 9.453125 12.601562 9.480469 C 12.484375 9.558594 12.363281 9.640625 12.246094 9.71875 C 12.210938 9.742188 12.171875 9.769531 12.132812 9.792969 C 12.054688 9.84375 11.980469 9.894531 11.90625 9.945312 C 11.726562 10.0625 11.550781 10.179688 11.378906 10.300781 C 11.347656 10.324219 11.316406 10.34375 11.285156 10.367188 C 11.226562 10.40625 11.167969 10.449219 11.109375 10.488281 C 10.917969 10.625 10.917969 10.625 10.769531 10.625 C 10.796875 10.4375 10.835938 10.253906 10.882812 10.070312 C 10.894531 10.015625 10.90625 9.964844 10.921875 9.910156 C 10.933594 9.855469 10.949219 9.800781 10.964844 9.746094 C 10.976562 9.691406 10.992188 9.632812 11.007812 9.574219 C 11.175781 8.914062 11.175781 8.914062 11.269531 8.605469 C 11.300781 8.484375 11.324219 8.371094 11.34375 8.246094 C 11.398438 7.949219 11.445312 7.675781 11.6875 7.476562 C 11.851562 7.363281 12.019531 7.269531 12.191406 7.175781 C 12.378906 7.070312 12.554688 6.949219 12.730469 6.828125 C 12.804688 6.777344 12.882812 6.726562 12.957031 6.675781 C 13.015625 6.636719 13.015625 6.636719 13.078125 6.597656 C 13.304688 6.445312 13.535156 6.292969 13.765625 6.144531 C 14.21875 5.847656 14.671875 5.546875 15.121094 5.246094 C 15.308594 5.121094 15.496094 4.996094 15.679688 4.871094 C 15.910156 4.722656 16.136719 4.570312 16.367188 4.417969 C 16.746094 4.164062 17.125 3.910156 17.507812 3.660156 C 17.75 3.5 17.992188 3.339844 18.230469 3.179688 C 18.367188 3.089844 18.5 3 18.632812 2.914062 C 18.667969 2.890625 18.703125 2.867188 18.734375 2.847656 C 18.800781 2.800781 18.867188 2.757812 18.933594 2.714844 C 19.132812 2.582031 19.332031 2.445312 19.53125 2.304688 C 19.601562 2.261719 19.601562 2.261719 19.691406 2.261719 Z M 19.691406 2.261719 "/>
<path style=" stroke:none;fill-rule:nonzero;fill:rgb(2.745098%,15.294118%,32.941177%);fill-opacity:1;" d="M 14.105469 9.191406 C 14.074219 9.429688 14.03125 9.660156 13.972656 9.894531 C 13.964844 9.925781 13.957031 9.960938 13.949219 9.996094 C 13.933594 10.066406 13.917969 10.136719 13.902344 10.203125 C 13.882812 10.289062 13.863281 10.375 13.839844 10.460938 C 13.792969 10.664062 13.742188 10.867188 13.671875 11.066406 C 13.613281 11.246094 13.574219 11.425781 13.542969 11.613281 C 13.511719 11.765625 13.46875 11.910156 13.429688 12.054688 C 13.28125 12.582031 13.144531 13.113281 13.003906 13.644531 C 12.9375 13.90625 12.867188 14.164062 12.792969 14.425781 C 12.699219 14.769531 12.617188 15.113281 12.546875 15.464844 C 12.507812 15.65625 12.453125 15.828125 12.382812 16.011719 C 12.300781 16.257812 12.25 16.515625 12.191406 16.773438 C 12.101562 17.171875 12.003906 17.566406 11.890625 17.960938 C 11.832031 18.175781 11.78125 18.390625 11.730469 18.609375 C 11.675781 18.839844 11.675781 18.839844 11.625 18.890625 C 11.546875 18.894531 11.46875 18.898438 11.386719 18.898438 C 11.335938 18.898438 11.285156 18.898438 11.230469 18.898438 C 11.144531 18.898438 11.144531 18.898438 11.058594 18.898438 C 10.996094 18.898438 10.9375 18.898438 10.875 18.898438 C 10.710938 18.898438 10.546875 18.894531 10.382812 18.894531 C 10.210938 18.894531 10.039062 18.894531 9.867188 18.894531 C 9.542969 18.894531 9.21875 18.894531 8.894531 18.894531 C 8.523438 18.894531 8.152344 18.894531 7.78125 18.894531 C 7.019531 18.894531 6.257812 18.890625 5.496094 18.890625 C 5.503906 18.824219 5.511719 18.757812 5.519531 18.695312 C 5.519531 18.65625 5.523438 18.621094 5.527344 18.582031 C 5.546875 18.4375 5.582031 18.300781 5.621094 18.15625 C 5.636719 18.097656 5.652344 18.039062 5.671875 17.976562 C 5.679688 17.945312 5.6875 17.914062 5.695312 17.882812 C 5.742188 17.707031 5.789062 17.53125 5.832031 17.351562 C 5.90625 17.070312 5.980469 16.785156 6.058594 16.503906 C 6.148438 16.171875 6.230469 15.839844 6.3125 15.503906 C 6.402344 15.121094 6.503906 14.742188 6.625 14.363281 C 6.632812 14.320312 6.644531 14.273438 6.65625 14.222656 C 6.734375 14.042969 6.851562 13.96875 7.007812 13.871094 C 7.039062 13.851562 7.070312 13.832031 7.101562 13.8125 C 7.164062 13.769531 7.226562 13.730469 7.289062 13.6875 C 7.421875 13.605469 7.554688 13.515625 7.6875 13.429688 C 7.929688 13.265625 8.175781 13.105469 8.421875 12.945312 C 8.574219 12.847656 8.71875 12.746094 8.863281 12.640625 C 9.113281 12.457031 9.378906 12.292969 9.640625 12.125 C 10.0625 11.859375 10.476562 11.582031 10.886719 11.296875 C 11.085938 11.160156 11.289062 11.027344 11.492188 10.894531 C 11.941406 10.601562 12.386719 10.304688 12.832031 10 C 13.035156 9.859375 13.238281 9.726562 13.445312 9.59375 C 13.609375 9.484375 13.765625 9.367188 13.925781 9.25 C 14.015625 9.191406 14.015625 9.191406 14.105469 9.191406 Z M 14.105469 9.191406 "/>
<path style=" stroke:none;fill-rule:nonzero;fill:rgb(94.117647%,95.294118%,96.470588%);fill-opacity:1;" d="M 5.542969 18.476562 C 5.558594 18.476562 5.570312 18.476562 5.585938 18.476562 C 5.59375 18.742188 5.59375 18.742188 5.542969 18.84375 C 7.535156 18.84375 9.527344 18.84375 11.582031 18.84375 C 11.582031 18.753906 11.582031 18.664062 11.582031 18.566406 C 11.625 18.554688 11.667969 18.539062 11.714844 18.523438 C 11.675781 18.839844 11.675781 18.839844 11.625 18.890625 C 11.546875 18.894531 11.46875 18.898438 11.386719 18.898438 C 11.335938 18.898438 11.285156 18.898438 11.230469 18.898438 C 11.144531 18.898438 11.144531 18.898438 11.058594 18.898438 C 10.996094 18.898438 10.9375 18.898438 10.875 18.898438 C 10.710938 18.898438 10.546875 18.894531 10.382812 18.894531 C 10.210938 18.894531 10.039062 18.894531 9.867188 18.894531 C 9.542969 18.894531 9.21875 18.894531 8.894531 18.894531 C 8.523438 18.894531 8.152344 18.894531 7.78125 18.894531 C 7.019531 18.894531 6.257812 18.890625 5.496094 18.890625 C 5.511719 18.753906 5.527344 18.617188 5.542969 18.476562 Z M 5.542969 18.476562 "/>
<path style=" stroke:none;fill-rule:nonzero;fill:rgb(96.470588%,98.039216%,99.607843%);fill-opacity:1;" d="M 15.457031 18.289062 C 15.5 18.429688 15.5 18.429688 15.367188 18.890625 C 14.371094 18.890625 13.375 18.890625 12.347656 18.890625 C 12.347656 18.613281 12.347656 18.613281 12.4375 18.523438 C 12.421875 18.628906 12.40625 18.734375 12.390625 18.84375 C 13.359375 18.84375 14.324219 18.84375 15.320312 18.84375 C 15.335938 18.691406 15.351562 18.539062 15.367188 18.382812 C 15.394531 18.351562 15.425781 18.324219 15.457031 18.289062 Z M 15.457031 18.289062 "/>
<path style=" stroke:none;fill-rule:nonzero;fill:rgb(59.607846%,78.823531%,99.607843%);fill-opacity:1;" d="M 11.535156 7.621094 C 11.566406 7.636719 11.59375 7.652344 11.625 7.667969 C 11.609375 7.722656 11.609375 7.722656 11.597656 7.777344 C 11.582031 7.828125 11.570312 7.875 11.558594 7.925781 C 11.546875 7.976562 11.53125 8.023438 11.519531 8.074219 C 11.484375 8.253906 11.453125 8.421875 11.535156 8.589844 C 11.503906 8.589844 11.476562 8.589844 11.445312 8.589844 C 11.445312 8.683594 11.445312 8.773438 11.445312 8.867188 C 11.402344 8.867188 11.355469 8.867188 11.308594 8.867188 C 11.308594 8.960938 11.308594 9.050781 11.308594 9.144531 C 11.265625 9.144531 11.222656 9.144531 11.175781 9.144531 C 11.160156 9.265625 11.144531 9.390625 11.128906 9.515625 C 11.113281 9.515625 11.101562 9.515625 11.085938 9.515625 C 11.109375 9.175781 11.1875 8.871094 11.28125 8.546875 C 11.335938 8.367188 11.382812 8.179688 11.433594 7.996094 C 11.453125 7.925781 11.472656 7.851562 11.492188 7.78125 C 11.507812 7.726562 11.519531 7.675781 11.535156 7.621094 Z M 11.535156 7.621094 "/>
<path style=" stroke:none;fill-rule:nonzero;fill:rgb(32.156864%,64.705884%,100%);fill-opacity:1;" d="M 13.292969 15.011719 C 13.308594 15.011719 13.324219 15.011719 13.339844 15.011719 C 13.351562 15.359375 13.351562 15.621094 13.203125 15.933594 C 13.191406 16.085938 13.191406 16.085938 13.203125 16.210938 C 13.171875 16.226562 13.144531 16.242188 13.113281 16.257812 C 13.050781 16.390625 13.015625 16.519531 12.976562 16.660156 C 12.933594 16.8125 12.933594 16.8125 12.84375 16.90625 C 12.875 16.617188 12.945312 16.34375 13.015625 16.0625 C 13.027344 16.015625 13.039062 15.972656 13.050781 15.925781 C 13.128906 15.621094 13.210938 15.316406 13.292969 15.011719 Z M 13.292969 15.011719 "/>
<path style=" stroke:none;fill-rule:nonzero;fill:rgb(52.941179%,58.431375%,67.450982%);fill-opacity:1;" d="M 14.105469 9.191406 C 14.074219 9.433594 14.027344 9.671875 13.972656 9.910156 C 13.960938 9.960938 13.960938 9.960938 13.949219 10.011719 C 13.902344 10.203125 13.851562 10.390625 13.789062 10.578125 C 13.773438 10.578125 13.757812 10.578125 13.742188 10.578125 C 13.726562 10.355469 13.777344 10.191406 13.847656 9.984375 C 13.886719 9.855469 13.890625 9.742188 13.878906 9.605469 C 13.753906 9.578125 13.644531 9.5625 13.519531 9.5625 C 13.597656 9.5 13.679688 9.4375 13.761719 9.375 C 13.804688 9.34375 13.851562 9.308594 13.898438 9.273438 C 14.015625 9.191406 14.015625 9.191406 14.105469 9.191406 Z M 14.105469 9.191406 "/>
<path style=" stroke:none;fill-rule:nonzero;fill:rgb(60.784316%,79.607844%,99.607843%);fill-opacity:1;" d="M 14.554688 10.253906 C 14.613281 10.421875 14.582031 10.535156 14.535156 10.703125 C 14.472656 10.9375 14.457031 11.125 14.464844 11.363281 C 14.453125 11.457031 14.4375 11.546875 14.417969 11.640625 C 14.375 11.640625 14.332031 11.640625 14.285156 11.640625 C 14.253906 11.746094 14.226562 11.851562 14.195312 11.964844 C 14.121094 11.777344 14.175781 11.605469 14.222656 11.421875 C 14.230469 11.386719 14.238281 11.351562 14.246094 11.316406 C 14.335938 10.957031 14.441406 10.605469 14.554688 10.253906 Z M 14.554688 10.253906 "/>
<path style=" stroke:none;fill-rule:nonzero;fill:rgb(68.235296%,83.529413%,99.607843%);fill-opacity:1;" d="M 13.832031 12.933594 C 13.847656 12.933594 13.863281 12.933594 13.878906 12.933594 C 13.886719 13.167969 13.878906 13.316406 13.789062 13.535156 C 13.769531 13.640625 13.757812 13.75 13.742188 13.855469 C 13.773438 13.871094 13.804688 13.886719 13.832031 13.902344 C 13.8125 13.921875 13.792969 13.941406 13.769531 13.960938 C 13.691406 14.050781 13.664062 14.113281 13.628906 14.230469 C 13.621094 14.265625 13.609375 14.300781 13.597656 14.339844 C 13.574219 14.421875 13.550781 14.503906 13.527344 14.585938 C 13.515625 14.628906 13.503906 14.667969 13.492188 14.710938 C 13.484375 14.75 13.472656 14.789062 13.460938 14.828125 C 13.429688 14.917969 13.429688 14.917969 13.339844 14.964844 C 13.4375 14.464844 13.542969 13.972656 13.699219 13.488281 C 13.746094 13.304688 13.789062 13.117188 13.832031 12.933594 Z M 13.832031 12.933594 "/>
<path style=" stroke:none;fill-rule:nonzero;fill:rgb(51.372552%,74.509805%,99.607843%);fill-opacity:1;" d="M 15.050781 7.621094 C 15.191406 7.613281 15.191406 7.613281 15.320312 7.621094 C 15.320312 7.710938 15.320312 7.804688 15.320312 7.898438 C 15.289062 7.898438 15.261719 7.898438 15.230469 7.898438 C 15.230469 7.988281 15.230469 8.082031 15.230469 8.175781 C 15.199219 8.175781 15.171875 8.175781 15.140625 8.175781 C 15.125 8.25 15.109375 8.328125 15.09375 8.40625 C 15.003906 8.222656 15.136719 7.945312 15.183594 7.761719 C 15.007812 7.882812 14.828125 8.003906 14.644531 8.128906 C 14.613281 8.113281 14.585938 8.097656 14.554688 8.082031 C 14.566406 7.996094 14.566406 7.996094 14.601562 7.898438 C 14.679688 7.855469 14.679688 7.855469 14.777344 7.828125 C 14.933594 7.777344 14.953125 7.773438 15.050781 7.621094 Z M 15.050781 7.621094 "/>
<path style=" stroke:none;fill-rule:nonzero;fill:rgb(63.529414%,68.627453%,75.686276%);fill-opacity:1;" d="M 6.261719 15.75 C 6.304688 15.894531 6.308594 16 6.285156 16.144531 C 6.265625 16.289062 6.261719 16.347656 6.308594 16.488281 C 6.265625 16.503906 6.21875 16.519531 6.171875 16.535156 C 6.132812 16.628906 6.132812 16.628906 6.105469 16.742188 C 6.089844 16.800781 6.089844 16.800781 6.074219 16.867188 C 6.0625 16.910156 6.050781 16.953125 6.039062 16.996094 C 6.011719 17.085938 5.988281 17.171875 5.960938 17.257812 C 5.949219 17.296875 5.9375 17.335938 5.929688 17.375 C 5.917969 17.402344 5.910156 17.429688 5.902344 17.460938 C 5.886719 17.460938 5.875 17.460938 5.859375 17.460938 C 5.886719 17.222656 5.929688 16.992188 5.984375 16.761719 C 5.992188 16.726562 6 16.691406 6.007812 16.660156 C 6.082031 16.351562 6.167969 16.050781 6.261719 15.75 Z M 6.261719 15.75 "/>
<path style=" stroke:none;fill-rule:nonzero;fill:rgb(57.647061%,63.529414%,71.764708%);fill-opacity:1;" d="M 11.492188 10.902344 C 11.519531 10.914062 11.550781 10.929688 11.582031 10.945312 C 11.535156 10.960938 11.492188 10.976562 11.445312 10.992188 C 11.445312 11.054688 11.445312 11.113281 11.445312 11.179688 C 11.261719 11.300781 11.070312 11.359375 10.859375 11.410156 C 10.859375 11.4375 10.859375 11.46875 10.859375 11.5 C 10.753906 11.53125 10.652344 11.5625 10.542969 11.59375 C 10.722656 11.394531 10.914062 11.253906 11.136719 11.113281 C 11.1875 11.082031 11.1875 11.082031 11.238281 11.050781 C 11.269531 11.03125 11.300781 11.007812 11.332031 10.988281 C 11.359375 10.972656 11.386719 10.953125 11.417969 10.933594 C 11.441406 10.921875 11.464844 10.910156 11.492188 10.902344 Z M 11.492188 10.902344 "/>
<path style=" stroke:none;fill-rule:nonzero;fill:rgb(62.7451%,80.392158%,99.607843%);fill-opacity:1;" d="M 13.921875 6.097656 C 13.921875 6.128906 13.921875 6.15625 13.921875 6.1875 C 13.878906 6.1875 13.835938 6.1875 13.789062 6.1875 C 13.773438 6.234375 13.757812 6.28125 13.742188 6.328125 C 13.640625 6.394531 13.535156 6.453125 13.429688 6.511719 C 13.261719 6.605469 13.109375 6.691406 12.976562 6.835938 C 12.949219 6.835938 12.917969 6.835938 12.886719 6.835938 C 12.886719 6.867188 12.886719 6.898438 12.886719 6.929688 C 12.8125 6.929688 12.738281 6.929688 12.660156 6.929688 C 12.816406 6.75 13 6.636719 13.195312 6.511719 C 13.261719 6.472656 13.324219 6.433594 13.386719 6.394531 C 13.414062 6.375 13.445312 6.355469 13.476562 6.335938 C 13.558594 6.285156 13.636719 6.230469 13.714844 6.175781 C 13.832031 6.097656 13.832031 6.097656 13.921875 6.097656 Z M 13.921875 6.097656 "/>
<path style=" stroke:none;fill-rule:nonzero;fill:rgb(71.764708%,85.09804%,99.607843%);fill-opacity:1;" d="M 17.347656 10.902344 C 17.378906 10.902344 17.40625 10.902344 17.4375 10.902344 C 17.367188 11.304688 17.265625 11.703125 17.167969 12.101562 C 17.152344 12.101562 17.136719 12.101562 17.125 12.101562 C 17.125 12.011719 17.125 11.917969 17.125 11.824219 C 17.09375 11.824219 17.0625 11.824219 17.03125 11.824219 C 17.054688 11.757812 17.054688 11.757812 17.078125 11.6875 C 17.109375 11.6875 17.136719 11.6875 17.167969 11.6875 C 17.167969 11.609375 17.167969 11.535156 17.167969 11.453125 C 17.199219 11.453125 17.226562 11.453125 17.257812 11.453125 C 17.261719 11.417969 17.265625 11.382812 17.265625 11.34375 C 17.269531 11.296875 17.273438 11.253906 17.277344 11.203125 C 17.28125 11.15625 17.285156 11.109375 17.289062 11.0625 C 17.304688 10.945312 17.304688 10.945312 17.347656 10.902344 Z M 17.347656 10.902344 "/>
<path style=" stroke:none;fill-rule:nonzero;fill:rgb(69.411767%,83.92157%,99.607843%);fill-opacity:1;" d="M 19.195312 3.925781 C 19.210938 3.925781 19.226562 3.925781 19.242188 3.925781 C 19.214844 4.257812 19.144531 4.558594 19.058594 4.875 C 19.046875 4.921875 19.03125 4.96875 19.019531 5.015625 C 18.988281 5.128906 18.957031 5.246094 18.925781 5.359375 C 18.910156 5.359375 18.894531 5.359375 18.878906 5.359375 C 18.871094 5.113281 18.902344 4.914062 18.96875 4.683594 C 19.019531 4.492188 19.070312 4.304688 19.105469 4.109375 C 19.136719 4.109375 19.164062 4.109375 19.195312 4.109375 C 19.195312 4.050781 19.195312 3.988281 19.195312 3.925781 Z M 19.195312 3.925781 "/>
<path style=" stroke:none;fill-rule:nonzero;fill:rgb(62.7451%,80.392158%,99.607843%);fill-opacity:1;" d="M 15.003906 8.5 C 15.074219 8.582031 15.074219 8.582031 15.140625 8.683594 C 15.125 8.730469 15.109375 8.773438 15.09375 8.820312 C 15.066406 8.820312 15.035156 8.820312 15.003906 8.820312 C 15.003906 9.003906 15.003906 9.1875 15.003906 9.375 C 14.945312 9.375 14.886719 9.375 14.824219 9.375 C 14.808594 9.421875 14.796875 9.46875 14.78125 9.515625 C 14.808594 9.277344 14.855469 9.054688 14.917969 8.824219 C 14.925781 8.792969 14.933594 8.761719 14.941406 8.730469 C 14.964844 8.652344 14.984375 8.574219 15.003906 8.5 Z M 15.003906 8.5 "/>
<path style=" stroke:none;fill-rule:nonzero;fill:rgb(60.000002%,65.490198%,72.941178%);fill-opacity:1;" d="M 6.578125 14.550781 C 6.625 14.6875 6.625 14.777344 6.625 14.917969 C 6.640625 14.964844 6.652344 15.011719 6.667969 15.058594 C 6.625 15.082031 6.625 15.082031 6.578125 15.105469 C 6.539062 15.210938 6.539062 15.210938 6.503906 15.335938 C 6.492188 15.378906 6.480469 15.421875 6.46875 15.464844 C 6.460938 15.5 6.453125 15.53125 6.445312 15.566406 C 6.414062 15.566406 6.382812 15.566406 6.355469 15.566406 C 6.339844 15.625 6.324219 15.6875 6.308594 15.75 C 6.335938 15.492188 6.378906 15.246094 6.445312 14.996094 C 6.453125 14.960938 6.460938 14.929688 6.46875 14.894531 C 6.527344 14.65625 6.527344 14.65625 6.578125 14.550781 Z M 6.578125 14.550781 "/>
<path style=" stroke:none;fill-rule:nonzero;fill:rgb(67.058825%,71.372551%,77.64706%);fill-opacity:1;" d="M 10.453125 11.59375 C 10.484375 11.609375 10.511719 11.625 10.542969 11.640625 C 10.5 11.671875 10.453125 11.699219 10.410156 11.730469 C 10.398438 11.761719 10.386719 11.792969 10.375 11.820312 C 10.246094 12.035156 9.914062 12.085938 9.6875 12.148438 C 9.832031 11.988281 9.988281 11.875 10.167969 11.765625 C 10.207031 11.738281 10.207031 11.738281 10.246094 11.710938 C 10.3125 11.667969 10.382812 11.632812 10.453125 11.59375 Z M 10.453125 11.59375 "/>
<path style=" stroke:none;fill-rule:nonzero;fill:rgb(70.19608%,74.509805%,80.000001%);fill-opacity:1;" d="M 13.472656 11.316406 C 13.503906 11.316406 13.53125 11.316406 13.5625 11.316406 C 13.542969 11.574219 13.503906 11.808594 13.429688 12.054688 C 13.402344 12.148438 13.378906 12.238281 13.355469 12.328125 C 13.335938 12.394531 13.335938 12.394531 13.320312 12.464844 C 13.304688 12.511719 13.304688 12.511719 13.292969 12.5625 C 13.277344 12.5625 13.261719 12.5625 13.246094 12.5625 C 13.21875 12.140625 13.355469 11.71875 13.472656 11.316406 Z M 13.472656 11.316406 "/>
<path style=" stroke:none;fill-rule:nonzero;fill:rgb(60.784316%,79.607844%,99.607843%);fill-opacity:1;" d="M 17.257812 3.878906 C 17.257812 3.925781 17.257812 3.972656 17.257812 4.019531 C 17.195312 4.023438 17.195312 4.023438 17.128906 4.03125 C 16.984375 4.046875 16.984375 4.046875 16.925781 4.160156 C 16.917969 4.191406 16.90625 4.21875 16.898438 4.25 C 16.839844 4.25 16.777344 4.25 16.71875 4.25 C 16.703125 4.296875 16.6875 4.339844 16.671875 4.386719 C 16.539062 4.480469 16.539062 4.480469 16.4375 4.464844 C 16.410156 4.453125 16.386719 4.445312 16.355469 4.433594 C 17.167969 3.878906 17.167969 3.878906 17.257812 3.878906 Z M 17.257812 3.878906 "/>
<path style=" stroke:none;fill-rule:nonzero;fill:rgb(67.450982%,71.764708%,78.039217%);fill-opacity:1;" d="M 12.121094 16.675781 C 12.136719 16.675781 12.152344 16.675781 12.167969 16.675781 C 12.140625 16.933594 12.097656 17.179688 12.035156 17.429688 C 12.027344 17.464844 12.019531 17.496094 12.011719 17.53125 C 11.953125 17.773438 11.953125 17.773438 11.851562 17.875 C 11.878906 17.617188 11.910156 17.355469 11.941406 17.089844 C 11.972656 17.089844 12 17.089844 12.03125 17.089844 C 12.0625 16.953125 12.089844 16.816406 12.121094 16.675781 Z M 12.121094 16.675781 "/>
<path style=" stroke:none;fill-rule:nonzero;fill:rgb(63.921571%,81.176472%,99.607843%);fill-opacity:1;" d="M 14.105469 11.964844 C 14.148438 12.101562 14.148438 12.191406 14.148438 12.332031 C 14.164062 12.378906 14.179688 12.425781 14.195312 12.472656 C 14.152344 12.535156 14.105469 12.597656 14.058594 12.65625 C 14.011719 12.746094 13.96875 12.839844 13.921875 12.933594 C 13.878906 12.789062 13.878906 12.703125 13.921875 12.558594 C 13.933594 12.523438 13.945312 12.488281 13.953125 12.453125 C 13.964844 12.417969 13.976562 12.382812 13.988281 12.34375 C 14 12.308594 14.011719 12.269531 14.023438 12.234375 C 14.046875 12.144531 14.078125 12.054688 14.105469 11.964844 Z M 14.105469 11.964844 "/>
<path style=" stroke:none;fill-rule:nonzero;fill:rgb(31.764707%,38.82353%,51.764709%);fill-opacity:1;" d="M 11.894531 17.183594 C 11.964844 17.410156 11.914062 17.625 11.882812 17.859375 C 11.875 17.902344 11.871094 17.949219 11.863281 17.992188 C 11.859375 18.035156 11.851562 18.078125 11.847656 18.121094 C 11.839844 18.160156 11.835938 18.199219 11.828125 18.242188 C 11.804688 18.335938 11.804688 18.335938 11.714844 18.429688 C 11.722656 18.304688 11.726562 18.179688 11.734375 18.058594 C 11.734375 18.023438 11.734375 17.988281 11.738281 17.953125 C 11.75 17.679688 11.8125 17.441406 11.894531 17.183594 Z M 11.894531 17.183594 "/>
<path style=" stroke:none;fill-rule:nonzero;fill:rgb(70.19608%,84.313726%,99.607843%);fill-opacity:1;" d="M 13.292969 15.011719 C 13.308594 15.011719 13.324219 15.011719 13.339844 15.011719 C 13.378906 15.472656 13.300781 15.773438 13.066406 16.167969 C 13.019531 16.015625 13.023438 15.984375 13.066406 15.839844 C 13.074219 15.800781 13.085938 15.765625 13.097656 15.730469 C 13.105469 15.691406 13.117188 15.652344 13.128906 15.613281 C 13.152344 15.539062 13.171875 15.464844 13.191406 15.390625 C 13.203125 15.359375 13.210938 15.324219 13.222656 15.292969 C 13.246094 15.199219 13.269531 15.105469 13.292969 15.011719 Z M 13.292969 15.011719 "/>
<path style=" stroke:none;fill-rule:nonzero;fill:rgb(77.254903%,87.843138%,99.607843%);fill-opacity:1;" d="M 16.851562 12.980469 C 16.921875 13.121094 16.871094 13.214844 16.832031 13.363281 C 16.820312 13.421875 16.804688 13.480469 16.789062 13.539062 C 16.773438 13.601562 16.757812 13.664062 16.742188 13.722656 C 16.726562 13.785156 16.710938 13.847656 16.695312 13.910156 C 16.660156 14.0625 16.621094 14.214844 16.582031 14.363281 C 16.566406 14.363281 16.550781 14.363281 16.539062 14.363281 C 16.550781 14.167969 16.566406 13.96875 16.582031 13.765625 C 16.613281 13.765625 16.640625 13.765625 16.671875 13.765625 C 16.675781 13.730469 16.675781 13.699219 16.675781 13.664062 C 16.695312 13.402344 16.71875 13.203125 16.851562 12.980469 Z M 16.851562 12.980469 "/>
<path style=" stroke:none;fill-rule:nonzero;fill:rgb(56.470591%,77.254903%,99.607843%);fill-opacity:1;" d="M 16.355469 4.480469 C 16.34375 4.542969 16.328125 4.601562 16.3125 4.664062 C 16.238281 4.664062 16.164062 4.664062 16.085938 4.664062 C 16.058594 4.742188 16.027344 4.816406 15.996094 4.894531 C 15.953125 4.878906 15.90625 4.867188 15.863281 4.851562 C 15.863281 4.878906 15.863281 4.910156 15.863281 4.941406 C 15.773438 4.957031 15.683594 4.972656 15.589844 4.988281 C 15.722656 4.84375 15.859375 4.738281 16.023438 4.628906 C 16.066406 4.601562 16.113281 4.574219 16.15625 4.542969 C 16.265625 4.480469 16.265625 4.480469 16.355469 4.480469 Z M 16.355469 4.480469 "/>
<path style=" stroke:none;fill-rule:nonzero;fill:rgb(59.607846%,78.823531%,99.607843%);fill-opacity:1;" d="M 14.960938 5.402344 C 14.960938 5.449219 14.960938 5.496094 14.960938 5.542969 C 14.894531 5.546875 14.894531 5.546875 14.832031 5.554688 C 14.761719 5.570312 14.761719 5.570312 14.691406 5.589844 C 14.640625 5.675781 14.640625 5.675781 14.601562 5.773438 C 14.492188 5.855469 14.492188 5.855469 14.375 5.914062 C 14.277344 5.890625 14.277344 5.890625 14.195312 5.867188 C 14.304688 5.789062 14.414062 5.710938 14.527344 5.636719 C 14.558594 5.613281 14.589844 5.589844 14.621094 5.566406 C 14.652344 5.546875 14.683594 5.527344 14.714844 5.503906 C 14.742188 5.484375 14.769531 5.464844 14.796875 5.445312 C 14.871094 5.402344 14.871094 5.402344 14.960938 5.402344 Z M 14.960938 5.402344 "/>
<path style=" stroke:none;fill-rule:nonzero;fill:rgb(59.215689%,78.431374%,99.607843%);fill-opacity:1;" d="M 17.84375 9.007812 C 17.875 9.007812 17.902344 9.007812 17.933594 9.007812 C 17.914062 9.109375 17.894531 9.214844 17.871094 9.320312 C 17.859375 9.375 17.847656 9.433594 17.835938 9.492188 C 17.804688 9.625 17.773438 9.722656 17.707031 9.839844 C 17.703125 9.804688 17.695312 9.769531 17.6875 9.730469 C 17.664062 9.605469 17.664062 9.605469 17.617188 9.46875 C 17.675781 9.375 17.738281 9.28125 17.800781 9.191406 C 17.832031 9.089844 17.832031 9.089844 17.84375 9.007812 Z M 17.84375 9.007812 "/>
<path style=" stroke:none;fill-rule:nonzero;fill:rgb(67.058825%,82.745099%,99.607843%);fill-opacity:1;" d="M 19.691406 2.261719 C 19.664062 2.5 19.617188 2.726562 19.554688 2.957031 C 19.542969 2.957031 19.527344 2.957031 19.511719 2.957031 C 19.515625 2.816406 19.515625 2.816406 19.519531 2.675781 C 19.519531 2.574219 19.519531 2.574219 19.421875 2.496094 C 19.390625 2.480469 19.363281 2.464844 19.332031 2.449219 C 19.589844 2.261719 19.589844 2.261719 19.691406 2.261719 Z M 19.691406 2.261719 "/>
<path style=" stroke:none;fill-rule:nonzero;fill:rgb(78.431374%,88.627452%,99.607843%);fill-opacity:1;" d="M 18.835938 5.359375 C 18.851562 5.359375 18.863281 5.359375 18.878906 5.359375 C 18.851562 5.597656 18.804688 5.832031 18.75 6.066406 C 18.738281 6.113281 18.738281 6.113281 18.726562 6.164062 C 18.664062 6.410156 18.664062 6.410156 18.566406 6.511719 C 18.605469 6.097656 18.65625 5.738281 18.835938 5.359375 Z M 18.835938 5.359375 "/>
<path style=" stroke:none;fill-rule:nonzero;fill:rgb(36.078432%,43.921569%,56.470591%);fill-opacity:1;" d="M 12.257812 10.4375 C 12.257812 10.484375 12.257812 10.53125 12.257812 10.578125 C 12.195312 10.578125 12.136719 10.578125 12.078125 10.578125 C 12.066406 10.632812 12.066406 10.632812 12.054688 10.6875 C 11.984375 10.808594 11.984375 10.808594 11.890625 10.84375 C 11.785156 10.867188 11.683594 10.886719 11.582031 10.902344 C 11.730469 10.726562 12.015625 10.4375 12.257812 10.4375 Z M 12.257812 10.4375 "/>
<path style=" stroke:none;fill-rule:nonzero;fill:rgb(64.705884%,69.411767%,76.078433%);fill-opacity:1;" d="M 5.8125 17.503906 C 5.859375 17.597656 5.859375 17.597656 5.839844 17.695312 C 5.816406 17.820312 5.816406 17.910156 5.824219 18.035156 C 5.828125 18.214844 5.820312 18.238281 5.699219 18.386719 C 5.664062 18.414062 5.625 18.445312 5.585938 18.476562 C 5.609375 18.367188 5.628906 18.257812 5.652344 18.148438 C 5.667969 18.058594 5.6875 17.96875 5.703125 17.882812 C 5.710938 17.839844 5.71875 17.800781 5.726562 17.757812 C 5.734375 17.71875 5.738281 17.679688 5.746094 17.640625 C 5.769531 17.550781 5.769531 17.550781 5.8125 17.503906 Z M 5.8125 17.503906 "/>
<path style=" stroke:none;fill-rule:nonzero;fill:rgb(60.784316%,65.882355%,73.333335%);fill-opacity:1;" d="M 7.34375 13.71875 C 7.34375 13.75 7.34375 13.777344 7.34375 13.8125 C 7.300781 13.8125 7.253906 13.8125 7.210938 13.8125 C 7.195312 13.855469 7.179688 13.902344 7.164062 13.949219 C 7.066406 14.039062 6.988281 14.085938 6.867188 14.132812 C 6.753906 14.171875 6.753906 14.171875 6.699219 14.277344 C 6.691406 14.308594 6.679688 14.335938 6.667969 14.363281 C 6.652344 14.261719 6.652344 14.261719 6.667969 14.132812 C 6.773438 14.03125 6.773438 14.03125 6.910156 13.9375 C 6.980469 13.890625 6.980469 13.890625 7.046875 13.839844 C 7.234375 13.71875 7.234375 13.71875 7.34375 13.71875 Z M 7.34375 13.71875 "/>
<path style=" stroke:none;fill-rule:nonzero;fill:rgb(50.588238%,56.862748%,66.666669%);fill-opacity:1;" d="M 12.84375 9.976562 C 12.871094 9.992188 12.902344 10.007812 12.933594 10.023438 C 12.898438 10.058594 12.863281 10.09375 12.824219 10.128906 C 12.703125 10.25 12.703125 10.25 12.617188 10.394531 C 12.53125 10.417969 12.53125 10.417969 12.429688 10.425781 C 12.34375 10.429688 12.34375 10.429688 12.257812 10.4375 C 12.367188 10.316406 12.492188 10.226562 12.625 10.128906 C 12.667969 10.101562 12.707031 10.074219 12.75 10.042969 C 12.78125 10.019531 12.808594 10 12.84375 9.976562 Z M 12.84375 9.976562 "/>
<path style=" stroke:none;fill-rule:nonzero;fill:rgb(52.549022%,58.431375%,67.843139%);fill-opacity:1;" d="M 8.832031 12.65625 C 8.863281 12.671875 8.890625 12.6875 8.921875 12.703125 C 8.855469 12.769531 8.855469 12.769531 8.785156 12.839844 C 8.800781 12.871094 8.816406 12.902344 8.832031 12.933594 C 8.714844 12.949219 8.59375 12.964844 8.472656 12.980469 C 8.457031 13.023438 8.441406 13.070312 8.425781 13.117188 C 8.367188 13.101562 8.308594 13.085938 8.246094 13.070312 C 8.320312 13.019531 8.390625 12.96875 8.464844 12.914062 C 8.503906 12.886719 8.542969 12.859375 8.585938 12.828125 C 8.667969 12.769531 8.75 12.710938 8.832031 12.65625 Z M 8.832031 12.65625 "/>
<path style=" stroke:none;fill-rule:nonzero;fill:rgb(77.254903%,87.843138%,99.607843%);fill-opacity:1;" d="M 10.90625 9.976562 C 10.917969 9.976562 10.933594 9.976562 10.949219 9.976562 C 10.949219 10.128906 10.949219 10.28125 10.949219 10.4375 C 10.996094 10.453125 11.039062 10.46875 11.085938 10.484375 C 10.921875 10.625 10.921875 10.625 10.769531 10.625 C 10.800781 10.402344 10.851562 10.191406 10.90625 9.976562 Z M 10.90625 9.976562 "/>
<path style=" stroke:none;fill-rule:nonzero;fill:rgb(9.803922%,19.607843%,36.470589%);fill-opacity:1;" d="M 13.203125 12.332031 C 13.21875 12.332031 13.234375 12.332031 13.246094 12.332031 C 13.269531 12.566406 13.191406 12.761719 13.113281 12.980469 C 12.988281 12.785156 13.03125 12.695312 13.066406 12.472656 C 13.113281 12.457031 13.15625 12.441406 13.203125 12.425781 C 13.203125 12.394531 13.203125 12.363281 13.203125 12.332031 Z M 13.203125 12.332031 "/>
<path style=" stroke:none;fill-rule:nonzero;fill:rgb(32.941177%,40.392157%,53.333336%);fill-opacity:1;" d="M 11.492188 10.902344 C 11.519531 10.914062 11.550781 10.929688 11.582031 10.945312 C 11.535156 10.960938 11.492188 10.976562 11.445312 10.992188 C 11.445312 11.054688 11.445312 11.113281 11.445312 11.179688 C 11.300781 11.277344 11.253906 11.28125 11.085938 11.269531 C 11.203125 11.105469 11.308594 10.988281 11.492188 10.902344 Z M 11.492188 10.902344 "/>
<path style=" stroke:none;fill-rule:nonzero;fill:rgb(63.529414%,80.784315%,99.607843%);fill-opacity:1;" d="M 15.183594 7.621094 C 15.230469 7.621094 15.273438 7.621094 15.320312 7.621094 C 15.320312 7.710938 15.320312 7.804688 15.320312 7.898438 C 15.289062 7.898438 15.261719 7.898438 15.230469 7.898438 C 15.230469 7.988281 15.230469 8.082031 15.230469 8.175781 C 15.199219 8.175781 15.171875 8.175781 15.140625 8.175781 C 15.125 8.25 15.109375 8.328125 15.09375 8.40625 C 15.03125 8.273438 15.074219 8.195312 15.113281 8.054688 C 15.132812 7.984375 15.132812 7.984375 15.152344 7.914062 C 15.164062 7.878906 15.175781 7.84375 15.183594 7.804688 C 15.214844 7.804688 15.246094 7.804688 15.277344 7.804688 C 15.277344 7.761719 15.277344 7.714844 15.277344 7.667969 C 15.246094 7.652344 15.214844 7.636719 15.183594 7.621094 Z M 15.183594 7.621094 "/>
<path style=" stroke:none;fill-rule:nonzero;fill:rgb(77.64706%,88.235295%,99.607843%);fill-opacity:1;" d="M 19.464844 3.003906 C 19.523438 3.121094 19.5 3.160156 19.464844 3.285156 C 19.457031 3.324219 19.445312 3.359375 19.433594 3.398438 C 19.425781 3.4375 19.414062 3.476562 19.402344 3.515625 C 19.390625 3.554688 19.378906 3.59375 19.367188 3.636719 C 19.339844 3.730469 19.3125 3.828125 19.285156 3.925781 C 19.207031 3.6875 19.277344 3.414062 19.367188 3.183594 C 19.398438 3.121094 19.429688 3.0625 19.464844 3.003906 Z M 19.464844 3.003906 "/>
<path style=" stroke:none;fill-rule:nonzero;fill:rgb(54.509807%,60.392159%,69.01961%);fill-opacity:1;" d="M 13.429688 9.605469 C 13.457031 9.621094 13.488281 9.636719 13.519531 9.652344 C 13.472656 9.667969 13.429688 9.683594 13.382812 9.699219 C 13.328125 9.816406 13.328125 9.816406 13.292969 9.929688 C 13.234375 9.929688 13.175781 9.929688 13.113281 9.929688 C 13.050781 9.945312 12.992188 9.960938 12.933594 9.976562 C 13.03125 9.871094 13.128906 9.789062 13.25 9.710938 C 13.296875 9.679688 13.296875 9.679688 13.34375 9.648438 C 13.371094 9.636719 13.398438 9.621094 13.429688 9.605469 Z M 13.429688 9.605469 "/>
<path style=" stroke:none;fill-rule:nonzero;fill:rgb(73.725492%,86.274511%,99.607843%);fill-opacity:1;" d="M 17.078125 12.101562 C 17.15625 12.257812 17.074219 12.429688 17.035156 12.59375 C 17.027344 12.628906 17.019531 12.667969 17.007812 12.703125 C 16.988281 12.796875 16.964844 12.886719 16.941406 12.980469 C 16.929688 12.980469 16.914062 12.980469 16.898438 12.980469 C 16.925781 12.339844 16.925781 12.339844 17.078125 12.101562 Z M 17.078125 12.101562 "/>
<path style=" stroke:none;fill-rule:nonzero;fill:rgb(16.470589%,56.470591%,100%);fill-opacity:1;" d="M 13.5625 6.511719 C 13.484375 6.566406 13.40625 6.617188 13.328125 6.671875 C 13.28125 6.699219 13.238281 6.730469 13.195312 6.761719 C 13.085938 6.824219 13.007812 6.859375 12.886719 6.882812 C 13.296875 6.421875 13.296875 6.421875 13.5625 6.511719 Z M 13.5625 6.511719 "/>
<path style=" stroke:none;fill-rule:nonzero;fill:rgb(73.333335%,85.882354%,99.607843%);fill-opacity:1;" d="M 14.734375 9.515625 C 14.75 9.515625 14.765625 9.515625 14.78125 9.515625 C 14.792969 9.800781 14.753906 9.988281 14.644531 10.253906 C 14.628906 10.253906 14.613281 10.253906 14.601562 10.253906 C 14.617188 9.996094 14.640625 9.757812 14.734375 9.515625 Z M 14.734375 9.515625 "/>
<path style=" stroke:none;fill-rule:nonzero;fill:rgb(64.705884%,81.568629%,99.607843%);fill-opacity:1;" d="M 12.121094 9.746094 C 11.984375 9.894531 11.839844 10.003906 11.671875 10.117188 C 11.640625 10.101562 11.609375 10.085938 11.582031 10.070312 C 11.609375 10.050781 11.640625 10.027344 11.671875 10.007812 C 11.714844 9.96875 11.714844 9.96875 11.761719 9.929688 C 11.761719 9.886719 11.761719 9.839844 11.761719 9.792969 C 11.882812 9.730469 11.988281 9.742188 12.121094 9.746094 Z M 12.121094 9.746094 "/>
<path style=" stroke:none;fill-rule:nonzero;fill:rgb(57.647061%,78.039217%,99.607843%);fill-opacity:1;" d="M 19.152344 2.632812 C 19.085938 2.808594 19.003906 2.878906 18.835938 2.957031 C 18.738281 2.9375 18.738281 2.9375 18.65625 2.910156 C 18.71875 2.863281 18.785156 2.816406 18.851562 2.769531 C 18.90625 2.734375 18.90625 2.734375 18.964844 2.695312 C 19.0625 2.632812 19.0625 2.632812 19.152344 2.632812 Z M 19.152344 2.632812 "/>
<path style=" stroke:none;fill-rule:nonzero;fill:rgb(53.725493%,75.686276%,99.607843%);fill-opacity:1;" d="M 15.953125 16.027344 C 16.085938 16.234375 16.015625 16.394531 15.972656 16.625 C 15.960938 16.671875 15.960938 16.671875 15.953125 16.71875 C 15.9375 16.71875 15.921875 16.71875 15.90625 16.71875 C 15.90625 16.613281 15.90625 16.507812 15.902344 16.398438 C 15.902344 16.339844 15.902344 16.28125 15.902344 16.21875 C 15.90625 16.074219 15.90625 16.074219 15.953125 16.027344 Z M 15.953125 16.027344 "/>
<path style=" stroke:none;fill-rule:nonzero;fill:rgb(49.411765%,73.725492%,99.607843%);fill-opacity:1;" d="M 14.914062 9.007812 C 14.929688 9.007812 14.945312 9.007812 14.960938 9.007812 C 14.976562 9.128906 14.988281 9.25 15.003906 9.375 C 14.945312 9.375 14.886719 9.375 14.824219 9.375 C 14.808594 9.421875 14.796875 9.46875 14.78125 9.515625 C 14.800781 9.328125 14.820312 9.171875 14.914062 9.007812 Z M 14.914062 9.007812 "/>
<path style=" stroke:none;fill-rule:nonzero;fill:rgb(36.078432%,43.137255%,55.29412%);fill-opacity:1;" d="M 10.453125 11.59375 C 10.484375 11.609375 10.511719 11.625 10.542969 11.640625 C 10.5 11.671875 10.453125 11.699219 10.410156 11.730469 C 10.398438 11.761719 10.386719 11.796875 10.371094 11.828125 C 10.355469 11.855469 10.335938 11.886719 10.320312 11.917969 C 10.179688 11.953125 10.179688 11.953125 10.046875 11.964844 C 10.167969 11.796875 10.269531 11.683594 10.453125 11.59375 Z M 10.453125 11.59375 "/>
<path style=" stroke:none;fill-rule:nonzero;fill:rgb(48.235294%,72.941178%,99.607843%);fill-opacity:1;" d="M 17.167969 11.453125 C 17.199219 11.46875 17.226562 11.484375 17.257812 11.5 C 17.226562 11.699219 17.199219 11.898438 17.167969 12.101562 C 17.152344 12.101562 17.136719 12.101562 17.125 12.101562 C 17.125 12.011719 17.125 11.917969 17.125 11.824219 C 17.09375 11.824219 17.0625 11.824219 17.03125 11.824219 C 17.046875 11.777344 17.0625 11.734375 17.078125 11.6875 C 17.109375 11.6875 17.136719 11.6875 17.167969 11.6875 C 17.167969 11.609375 17.167969 11.535156 17.167969 11.453125 Z M 17.167969 11.453125 "/>
<path style=" stroke:none;fill-rule:nonzero;fill:rgb(67.843139%,83.137256%,99.607843%);fill-opacity:1;" d="M 12.933594 9.144531 C 12.960938 9.160156 12.992188 9.175781 13.023438 9.191406 C 12.875 9.296875 12.726562 9.40625 12.570312 9.515625 C 12.542969 9.5 12.511719 9.484375 12.480469 9.46875 C 12.511719 9.378906 12.511719 9.378906 12.570312 9.285156 C 12.683594 9.253906 12.683594 9.253906 12.796875 9.238281 C 12.84375 9.207031 12.886719 9.175781 12.933594 9.144531 Z M 12.933594 9.144531 "/>
<path style=" stroke:none;fill-rule:nonzero;fill:rgb(66.666669%,82.352942%,99.607843%);fill-opacity:1;" d="M 15.457031 18.289062 C 15.507812 18.453125 15.492188 18.492188 15.4375 18.644531 C 15.421875 18.683594 15.410156 18.722656 15.398438 18.757812 C 15.382812 18.800781 15.382812 18.800781 15.367188 18.84375 C 15.308594 18.652344 15.347656 18.527344 15.410156 18.335938 C 15.425781 18.320312 15.441406 18.308594 15.457031 18.289062 Z M 15.457031 18.289062 "/>
<path style=" stroke:none;fill-rule:nonzero;fill:rgb(57.254905%,62.7451%,70.980394%);fill-opacity:1;" d="M 12.257812 16.121094 C 12.269531 16.121094 12.285156 16.121094 12.300781 16.121094 C 12.296875 16.1875 12.289062 16.253906 12.285156 16.320312 C 12.28125 16.355469 12.277344 16.394531 12.273438 16.429688 C 12.257812 16.535156 12.257812 16.535156 12.167969 16.675781 C 12.167969 16.523438 12.167969 16.371094 12.167969 16.210938 C 12.195312 16.210938 12.226562 16.210938 12.257812 16.210938 C 12.257812 16.183594 12.257812 16.152344 12.257812 16.121094 Z M 12.257812 16.121094 "/>
<path style=" stroke:none;fill-rule:nonzero;fill:rgb(80.784315%,89.803922%,99.607843%);fill-opacity:1;" d="M 13.832031 12.933594 C 13.847656 12.933594 13.863281 12.933594 13.878906 12.933594 C 13.894531 13.21875 13.855469 13.40625 13.742188 13.671875 C 13.679688 13.5 13.714844 13.375 13.761719 13.199219 C 13.777344 13.148438 13.789062 13.097656 13.800781 13.046875 C 13.8125 13.011719 13.824219 12.972656 13.832031 12.933594 Z M 13.832031 12.933594 "/>
<path style=" stroke:none;fill-rule:nonzero;fill:rgb(80.392158%,89.803922%,99.607843%);fill-opacity:1;" d="M 12.570312 17.78125 C 12.585938 17.78125 12.601562 17.78125 12.617188 17.78125 C 12.625 18.023438 12.597656 18.203125 12.527344 18.429688 C 12.496094 18.429688 12.46875 18.429688 12.4375 18.429688 C 12.460938 18.199219 12.492188 18 12.570312 17.78125 Z M 12.570312 17.78125 "/>
<path style=" stroke:none;fill-rule:nonzero;fill:rgb(82.352942%,90.588236%,99.607843%);fill-opacity:1;" d="M 12.976562 16.257812 C 13.035156 16.4375 13.019531 16.582031 12.976562 16.765625 C 12.90625 16.859375 12.90625 16.859375 12.84375 16.90625 C 12.871094 16.679688 12.914062 16.472656 12.976562 16.257812 Z M 12.976562 16.257812 "/>
<path style=" stroke:none;fill-rule:nonzero;fill:rgb(7.843138%,17.254902%,34.509805%);fill-opacity:1;" d="M 6.398438 15.703125 C 6.445312 15.832031 6.445312 15.882812 6.402344 16.015625 C 6.386719 16.050781 6.371094 16.085938 6.355469 16.121094 C 6.324219 16.121094 6.292969 16.121094 6.261719 16.121094 C 6.289062 15.835938 6.289062 15.835938 6.308594 15.75 C 6.339844 15.734375 6.367188 15.71875 6.398438 15.703125 Z M 6.398438 15.703125 "/>
<path style=" stroke:none;fill-rule:nonzero;fill:rgb(81.176472%,83.92157%,87.843138%);fill-opacity:1;" d="M 13.699219 10.578125 C 13.714844 10.578125 13.726562 10.578125 13.742188 10.578125 C 13.761719 10.832031 13.695312 11.035156 13.609375 11.269531 C 13.550781 11.078125 13.59375 10.953125 13.652344 10.761719 C 13.667969 10.699219 13.683594 10.640625 13.699219 10.578125 Z M 13.699219 10.578125 "/>
<path style=" stroke:none;fill-rule:nonzero;fill:rgb(7.450981%,16.862746%,34.509805%);fill-opacity:1;" d="M 13.832031 9.882812 C 13.878906 9.976562 13.878906 9.976562 13.84375 10.136719 C 13.789062 10.300781 13.789062 10.300781 13.699219 10.394531 C 13.703125 10.324219 13.710938 10.257812 13.714844 10.191406 C 13.71875 10.152344 13.722656 10.117188 13.726562 10.078125 C 13.742188 9.976562 13.742188 9.976562 13.832031 9.882812 Z M 13.832031 9.882812 "/>
<path style=" stroke:none;fill-rule:nonzero;fill:rgb(14.901961%,55.686277%,100%);fill-opacity:1;" d="M 17.753906 8.867188 C 17.785156 8.882812 17.8125 8.898438 17.84375 8.914062 C 17.851562 9.109375 17.835938 9.246094 17.753906 9.421875 C 17.738281 9.421875 17.722656 9.421875 17.707031 9.421875 C 17.722656 9.238281 17.738281 9.058594 17.753906 8.867188 Z M 17.753906 8.867188 "/>
<path style=" stroke:none;fill-rule:nonzero;fill:rgb(14.901961%,55.686277%,100%);fill-opacity:1;" d="M 15.410156 18.015625 C 15.425781 18.015625 15.441406 18.015625 15.457031 18.015625 C 15.464844 18.222656 15.457031 18.378906 15.367188 18.566406 C 15.351562 18.566406 15.335938 18.566406 15.320312 18.566406 C 15.328125 18.484375 15.332031 18.402344 15.339844 18.316406 C 15.34375 18.269531 15.347656 18.222656 15.351562 18.175781 C 15.367188 18.058594 15.367188 18.058594 15.410156 18.015625 Z M 15.410156 18.015625 "/>
<path style=" stroke:none;fill-rule:nonzero;fill:rgb(0.392157%,9.803922%,28.627452%);fill-opacity:1;" d="M 6.535156 15.105469 C 6.546875 15.105469 6.5625 15.105469 6.578125 15.105469 C 6.574219 15.179688 6.566406 15.253906 6.5625 15.328125 C 6.558594 15.390625 6.558594 15.390625 6.550781 15.457031 C 6.535156 15.566406 6.535156 15.566406 6.445312 15.65625 C 6.4375 15.449219 6.445312 15.292969 6.535156 15.105469 Z M 6.535156 15.105469 "/>
<path style=" stroke:none;fill-rule:nonzero;fill:rgb(80.392158%,83.529413%,87.450981%);fill-opacity:1;" d="M 14.105469 9.191406 C 14.089844 9.296875 14.074219 9.40625 14.058594 9.515625 C 14.042969 9.453125 14.027344 9.394531 14.015625 9.332031 C 13.941406 9.359375 13.863281 9.390625 13.789062 9.421875 C 14.003906 9.191406 14.003906 9.191406 14.105469 9.191406 Z M 14.105469 9.191406 "/>
<path style=" stroke:none;fill-rule:nonzero;fill:rgb(60.784316%,79.607844%,99.607843%);fill-opacity:1;" d="M 18.203125 3.1875 C 18.234375 3.203125 18.265625 3.21875 18.292969 3.234375 C 18.191406 3.351562 18.191406 3.351562 18.070312 3.464844 C 18.011719 3.449219 17.949219 3.433594 17.890625 3.417969 C 17.992188 3.34375 18.097656 3.265625 18.203125 3.1875 Z M 18.203125 3.1875 "/>
<path style=" stroke:none;fill-rule:nonzero;fill:rgb(49.803922%,73.725492%,99.607843%);fill-opacity:1;" d="M 13.742188 8.683594 C 13.667969 8.746094 13.59375 8.804688 13.519531 8.867188 C 13.488281 8.851562 13.457031 8.835938 13.429688 8.820312 C 13.429688 8.777344 13.429688 8.730469 13.429688 8.683594 C 13.546875 8.621094 13.617188 8.652344 13.742188 8.683594 Z M 13.742188 8.683594 "/>
<path style=" stroke:none;fill-rule:nonzero;fill:rgb(28.235295%,62.7451%,100%);fill-opacity:1;" d="M 15.140625 8.175781 C 15.15625 8.175781 15.171875 8.175781 15.183594 8.175781 C 15.199219 8.296875 15.214844 8.417969 15.230469 8.546875 C 15.171875 8.558594 15.113281 8.574219 15.050781 8.589844 C 15.078125 8.453125 15.105469 8.3125 15.140625 8.175781 Z M 15.140625 8.175781 "/>
<path style=" stroke:none;fill-rule:nonzero;fill:rgb(14.901961%,55.686277%,100%);fill-opacity:1;" d="M 18.382812 6.699219 C 18.398438 6.699219 18.414062 6.699219 18.429688 6.699219 C 18.425781 6.765625 18.417969 6.835938 18.414062 6.902344 C 18.410156 6.960938 18.410156 6.960938 18.402344 7.019531 C 18.398438 7.050781 18.390625 7.082031 18.382812 7.113281 C 18.339844 7.136719 18.339844 7.136719 18.292969 7.160156 C 18.300781 7.089844 18.308594 7.023438 18.3125 6.953125 C 18.316406 6.917969 18.320312 6.878906 18.324219 6.839844 C 18.339844 6.742188 18.339844 6.742188 18.382812 6.699219 Z M 18.382812 6.699219 "/>
<path style=" stroke:none;fill-rule:nonzero;fill:rgb(14.901961%,55.686277%,100%);fill-opacity:1;" d="M 16.042969 15.519531 C 16.070312 15.519531 16.101562 15.519531 16.132812 15.519531 C 16.097656 15.824219 16.097656 15.824219 15.996094 15.980469 C 16.011719 15.828125 16.027344 15.675781 16.042969 15.519531 Z M 16.042969 15.519531 "/>
<path style=" stroke:none;fill-rule:nonzero;fill:rgb(14.901961%,55.686277%,100%);fill-opacity:1;" d="M 13.429688 14.78125 C 13.457031 14.78125 13.488281 14.78125 13.519531 14.78125 C 13.535156 15.007812 13.527344 15.046875 13.382812 15.242188 C 13.398438 15.089844 13.414062 14.9375 13.429688 14.78125 Z M 13.429688 14.78125 "/>
<path style=" stroke:none;fill-rule:nonzero;fill:rgb(8.627451%,18.82353%,36.078432%);fill-opacity:1;" d="M 13.113281 9.882812 C 13.140625 9.898438 13.171875 9.914062 13.203125 9.929688 C 13.125 10.027344 13.125 10.027344 13.023438 10.117188 C 12.921875 10.105469 12.921875 10.105469 12.84375 10.070312 C 12.929688 10.007812 13.019531 9.949219 13.113281 9.882812 Z M 13.113281 9.882812 "/>
<path style=" stroke:none;fill-rule:nonzero;fill:rgb(56.470591%,77.254903%,99.607843%);fill-opacity:1;" d="M 12.480469 9.515625 C 12.273438 9.699219 12.273438 9.699219 12.121094 9.699219 C 12.121094 9.652344 12.121094 9.609375 12.121094 9.5625 C 12.242188 9.5 12.347656 9.511719 12.480469 9.515625 Z M 12.480469 9.515625 "/>
<path style=" stroke:none;fill-rule:nonzero;fill:rgb(61.176473%,79.607844%,99.607843%);fill-opacity:1;" d="M 13.15625 8.867188 C 13.230469 8.882812 13.304688 8.898438 13.382812 8.914062 C 13.269531 9.042969 13.195312 9.121094 13.023438 9.144531 C 13.042969 9.125 13.066406 9.105469 13.089844 9.085938 C 13.171875 9.007812 13.171875 9.007812 13.15625 8.867188 Z M 13.15625 8.867188 "/>
<path style=" stroke:none;fill-rule:nonzero;fill:rgb(16.078432%,56.078434%,100%);fill-opacity:1;" d="M 11.535156 8.035156 C 11.550781 8.035156 11.566406 8.035156 11.582031 8.035156 C 11.597656 8.285156 11.597656 8.285156 11.511719 8.421875 C 11.492188 8.449219 11.46875 8.472656 11.445312 8.5 C 11.453125 8.429688 11.457031 8.363281 11.464844 8.292969 C 11.46875 8.253906 11.472656 8.21875 11.476562 8.179688 C 11.492188 8.082031 11.492188 8.082031 11.535156 8.035156 Z M 11.535156 8.035156 "/>
<path style=" stroke:none;fill-rule:nonzero;fill:rgb(29.019609%,63.137257%,100%);fill-opacity:1;" d="M 13.382812 14.917969 C 13.449219 15.058594 13.4375 15.179688 13.429688 15.335938 C 13.398438 15.378906 13.367188 15.425781 13.339844 15.472656 C 13.277344 15.296875 13.304688 15.148438 13.339844 14.964844 C 13.351562 14.949219 13.367188 14.933594 13.382812 14.917969 Z M 13.382812 14.917969 "/>
<path style=" stroke:none;fill-rule:nonzero;fill:rgb(8.627451%,17.647059%,35.294119%);fill-opacity:1;" d="M 12.617188 14.410156 C 12.648438 14.410156 12.675781 14.410156 12.707031 14.410156 C 12.691406 14.519531 12.675781 14.625 12.660156 14.734375 C 12.632812 14.734375 12.601562 14.734375 12.570312 14.734375 C 12.570312 14.640625 12.570312 14.550781 12.570312 14.457031 C 12.585938 14.441406 12.601562 14.425781 12.617188 14.410156 Z M 12.617188 14.410156 "/>
<path style=" stroke:none;fill-rule:nonzero;fill:rgb(62.7451%,67.843139%,75.294119%);fill-opacity:1;" d="M 9.597656 12.148438 C 9.628906 12.164062 9.65625 12.179688 9.6875 12.195312 C 9.570312 12.371094 9.480469 12.375 9.28125 12.425781 C 9.382812 12.316406 9.476562 12.230469 9.597656 12.148438 Z M 9.597656 12.148438 "/>
<path style=" stroke:none;fill-rule:nonzero;fill:rgb(64.313728%,69.01961%,75.686276%);fill-opacity:1;" d="M 12.257812 10.4375 C 12.257812 10.484375 12.257812 10.53125 12.257812 10.578125 C 12.054688 10.644531 12.054688 10.644531 11.851562 10.714844 C 12.113281 10.4375 12.113281 10.4375 12.257812 10.4375 Z M 12.257812 10.4375 "/>
</g>
</svg>
