<?xml version="1.0" encoding="UTF-8"?>
<svg xmlns="http://www.w3.org/2000/svg" xmlns:xlink="http://www.w3.org/1999/xlink" width="27px" height="27px" viewBox="0 0 27 27" version="1.1">
<g id="surface1">
<path style=" stroke:none;fill-rule:nonzero;fill:rgb(46.27451%,29.019609%,73.725492%);fill-opacity:1;" d="M 18.707031 18.535156 C 19.703125 18.429688 20.460938 17.570312 20.425781 16.542969 C 20.390625 15.511719 19.53125 14.6875 18.503906 14.6875 L 18.433594 14.6875 C 17.367188 14.71875 16.542969 15.613281 16.578125 16.679688 C 16.613281 17.195312 16.820312 17.640625 17.128906 17.949219 C 15.960938 20.253906 14.171875 21.9375 11.492188 23.34375 C 9.671875 24.308594 7.78125 24.648438 5.890625 24.410156 C 4.347656 24.203125 3.144531 23.515625 2.386719 22.382812 C 1.289062 20.699219 1.183594 18.878906 2.113281 17.058594 C 2.765625 15.75 3.796875 14.789062 4.449219 14.308594 C 4.3125 13.863281 4.105469 13.105469 4.003906 12.554688 C -0.980469 16.164062 -0.464844 21.042969 1.046875 23.34375 C 2.179688 25.0625 4.484375 26.128906 7.027344 26.128906 C 7.714844 26.128906 8.402344 26.058594 9.085938 25.886719 C 13.484375 25.027344 16.820312 22.417969 18.707031 18.535156 Z M 24.753906 14.273438 C 22.144531 11.214844 18.296875 9.53125 13.898438 9.53125 L 13.347656 9.53125 C 13.039062 8.914062 12.386719 8.5 11.664062 8.5 L 11.597656 8.5 C 10.53125 8.535156 9.707031 9.429688 9.742188 10.492188 C 9.773438 11.523438 10.632812 12.347656 11.664062 12.347656 L 11.734375 12.347656 C 12.488281 12.316406 13.140625 11.835938 13.417969 11.179688 L 14.035156 11.179688 C 16.648438 11.179688 19.121094 11.9375 21.355469 13.414062 C 23.070312 14.546875 24.308594 16.027344 24.996094 17.8125 C 25.578125 19.253906 25.546875 20.664062 24.925781 21.867188 C 23.964844 23.6875 22.351562 24.683594 20.21875 24.683594 C 18.84375 24.683594 17.539062 24.273438 16.851562 23.964844 C 16.476562 24.308594 15.789062 24.855469 15.304688 25.199219 C 16.785156 25.886719 18.296875 26.265625 19.738281 26.265625 C 23.039062 26.265625 25.476562 24.445312 26.40625 22.625 C 27.402344 20.628906 27.332031 17.195312 24.753906 14.273438 Z M 7.300781 19.117188 C 7.335938 20.148438 8.195312 20.972656 9.226562 20.972656 L 9.292969 20.972656 C 10.359375 20.9375 11.183594 20.046875 11.148438 18.980469 C 11.113281 17.949219 10.257812 17.125 9.226562 17.125 L 9.15625 17.125 C 9.085938 17.125 8.984375 17.125 8.914062 17.160156 C 7.507812 14.824219 6.921875 12.28125 7.128906 9.53125 C 7.265625 7.46875 7.953125 5.683594 9.15625 4.207031 C 10.152344 2.933594 12.078125 2.316406 13.382812 2.28125 C 17.023438 2.214844 18.570312 6.75 18.671875 8.570312 C 19.121094 8.671875 19.875 8.914062 20.390625 9.085938 C 19.980469 3.519531 16.542969 0.632812 13.246094 0.632812 C 10.152344 0.632812 7.300781 2.867188 6.167969 6.164062 C 4.585938 10.5625 5.617188 14.789062 7.542969 18.121094 C 7.371094 18.363281 7.265625 18.742188 7.300781 19.117188 Z M 7.300781 19.117188 "/>
</g>
</svg>
