<?xml version="1.0" encoding="UTF-8"?>
<svg xmlns="http://www.w3.org/2000/svg" xmlns:xlink="http://www.w3.org/1999/xlink" width="27px" height="27px" viewBox="0 0 27 27" version="1.1">
<g id="surface1">
<path style=" stroke:none;fill-rule:nonzero;fill:rgb(0.392157%,0.392157%,0.392157%);fill-opacity:1;" d="M 10.171875 0.777344 C 13.574219 -0.09375 17.335938 0.414062 20.339844 2.265625 C 24.117188 4.527344 26.585938 8.804688 26.648438 13.203125 C 26.785156 17.652344 24.46875 22.058594 20.746094 24.476562 C 16.601562 27.265625 10.867188 27.371094 6.636719 24.71875 C 2.324219 22.144531 -0.195312 16.953125 0.453125 11.96875 C 0.972656 6.699219 5.042969 2.054688 10.171875 0.777344 Z M 10.171875 0.777344 "/>
<path style=" stroke:none;fill-rule:nonzero;fill:rgb(100%,100%,100%);fill-opacity:1;" d="M 9.652344 2.933594 C 16.082031 0.359375 23.96875 5.109375 24.632812 12.003906 C 25.667969 18.210938 20.519531 24.511719 14.234375 24.695312 C 8.257812 25.292969 2.480469 20.226562 2.3125 14.222656 C 1.863281 9.363281 5.066406 4.539062 9.652344 2.933594 Z M 9.652344 2.933594 "/>
<path style=" stroke:none;fill-rule:nonzero;fill:rgb(0.392157%,0.392157%,0.392157%);fill-opacity:1;" d="M 10.296875 12.835938 C 13.179688 10.480469 16 8.042969 18.945312 5.757812 C 17.398438 8.132812 15.8125 10.472656 14.265625 12.847656 C 12.941406 12.851562 11.617188 12.851562 10.296875 12.835938 Z M 10.296875 12.835938 "/>
<path style=" stroke:none;fill-rule:nonzero;fill:rgb(0.392157%,0.392157%,0.392157%);fill-opacity:1;" d="M 12.734375 14.148438 C 14.066406 14.148438 15.390625 14.148438 16.714844 14.164062 C 13.8125 16.507812 11.007812 18.960938 8.054688 21.242188 C 9.601562 18.867188 11.1875 16.519531 12.734375 14.148438 Z M 12.734375 14.148438 "/>
</g>
</svg>
